<svg xmlns="http://www.w3.org/2000/svg" width="1136" height="396" viewBox="0 0 1136 396" font-family="Helvetica, Arial, sans-serif">
  <title>Figure 2 - mean rank with bootstrap CI</title>
  <rect width="1136" height="396" fill="#ffffff"/>
  <text x="400" y="30" font-size="13" text-anchor="middle" fill="#1a1a1a" font-weight="bold">linear probe</text>
  <line x1="200" y1="54" x2="200" y2="296" stroke="#d8d8d8" stroke-width="1"/>
  <text x="200" y="316" font-size="9.5" text-anchor="middle" fill="#6b7280" font-weight="normal">1</text>
  <line x1="266.67" y1="54" x2="266.67" y2="296" stroke="#d8d8d8" stroke-width="1"/>
  <text x="266.67" y="316" font-size="9.5" text-anchor="middle" fill="#6b7280" font-weight="normal">2</text>
  <line x1="333.33" y1="54" x2="333.33" y2="296" stroke="#d8d8d8" stroke-width="1"/>
  <text x="333.33" y="316" font-size="9.5" text-anchor="middle" fill="#6b7280" font-weight="normal">3</text>
  <line x1="400" y1="54" x2="400" y2="296" stroke="#d8d8d8" stroke-width="1"/>
  <text x="400" y="316" font-size="9.5" text-anchor="middle" fill="#6b7280" font-weight="normal">4</text>
  <line x1="466.67" y1="54" x2="466.67" y2="296" stroke="#d8d8d8" stroke-width="1"/>
  <text x="466.67" y="316" font-size="9.5" text-anchor="middle" fill="#6b7280" font-weight="normal">5</text>
  <line x1="533.33" y1="54" x2="533.33" y2="296" stroke="#d8d8d8" stroke-width="1"/>
  <text x="533.33" y="316" font-size="9.5" text-anchor="middle" fill="#6b7280" font-weight="normal">6</text>
  <line x1="600" y1="54" x2="600" y2="296" stroke="#d8d8d8" stroke-width="1"/>
  <text x="600" y="316" font-size="9.5" text-anchor="middle" fill="#6b7280" font-weight="normal">7</text>
  <text x="188" y="87" font-size="10.5" text-anchor="end" fill="#1a1a1a" font-weight="normal">Morgan ECFP4 (1024)</text>
  <line x1="275.76" y1="83" x2="366.67" y2="83" stroke="#2e7d5b" stroke-width="2.5" stroke-linecap="round"/>
  <line x1="275.76" y1="78" x2="275.76" y2="88" stroke="#2e7d5b" stroke-width="2"/>
  <line x1="366.67" y1="78" x2="366.67" y2="88" stroke="#2e7d5b" stroke-width="2"/>
  <circle cx="318.18" cy="83" r="4.5" fill="#2e7d5b"/>
  <text x="375.67" y="87" font-size="9" text-anchor="start" fill="#6b7280" font-weight="normal">2.77 [2.14, 3.50]</text>
  <text x="188" y="121" font-size="10.5" text-anchor="end" fill="#1a1a1a" font-weight="normal">SMILES TF-IDF (4096)</text>
  <line x1="284.85" y1="117" x2="384.85" y2="117" stroke="#c1441e" stroke-width="2.5" stroke-linecap="round"/>
  <line x1="284.85" y1="112" x2="284.85" y2="122" stroke="#c1441e" stroke-width="2"/>
  <line x1="384.85" y1="112" x2="384.85" y2="122" stroke="#c1441e" stroke-width="2"/>
  <circle cx="333.33" cy="117" r="4.5" fill="#c1441e"/>
  <text x="393.85" y="121" font-size="9" text-anchor="start" fill="#6b7280" font-weight="normal">3.00 [2.27, 3.77]</text>
  <text x="188" y="155" font-size="10.5" text-anchor="end" fill="#1a1a1a" font-weight="normal">Avalon (1024)</text>
  <line x1="345.45" y1="151" x2="421.21" y2="151" stroke="#7a5195" stroke-width="2.5" stroke-linecap="round"/>
  <line x1="345.45" y1="146" x2="345.45" y2="156" stroke="#7a5195" stroke-width="2"/>
  <line x1="421.21" y1="146" x2="421.21" y2="156" stroke="#7a5195" stroke-width="2"/>
  <circle cx="381.82" cy="151" r="4.5" fill="#7a5195"/>
  <text x="430.21" y="155" font-size="9" text-anchor="start" fill="#6b7280" font-weight="normal">3.73 [3.18, 4.32]</text>
  <text x="188" y="189" font-size="10.5" text-anchor="end" fill="#1a1a1a" font-weight="normal">physchem (217)</text>
  <line x1="318.18" y1="185" x2="451.52" y2="185" stroke="#1b6ca8" stroke-width="2.5" stroke-linecap="round"/>
  <line x1="318.18" y1="180" x2="318.18" y2="190" stroke="#1b6ca8" stroke-width="2"/>
  <line x1="451.52" y1="180" x2="451.52" y2="190" stroke="#1b6ca8" stroke-width="2"/>
  <circle cx="384.85" cy="185" r="4.5" fill="#1b6ca8"/>
  <text x="460.52" y="189" font-size="9" text-anchor="start" fill="#6b7280" font-weight="normal">3.77 [2.77, 4.77]</text>
  <text x="188" y="223" font-size="10.5" text-anchor="end" fill="#1a1a1a" font-weight="normal">MACCS (167)</text>
  <line x1="348.48" y1="219" x2="433.33" y2="219" stroke="#bc8034" stroke-width="2.5" stroke-linecap="round"/>
  <line x1="348.48" y1="214" x2="348.48" y2="224" stroke="#bc8034" stroke-width="2"/>
  <line x1="433.33" y1="214" x2="433.33" y2="224" stroke="#bc8034" stroke-width="2"/>
  <circle cx="390.91" cy="219" r="4.5" fill="#bc8034"/>
  <text x="442.33" y="223" font-size="9" text-anchor="start" fill="#6b7280" font-weight="normal">3.86 [3.23, 4.50]</text>
  <text x="188" y="257" font-size="10.5" text-anchor="end" fill="#1a1a1a" font-weight="normal">fragments (85)</text>
  <line x1="448.48" y1="253" x2="530.3" y2="253" stroke="#94708c" stroke-width="2.5" stroke-linecap="round"/>
  <line x1="448.48" y1="248" x2="448.48" y2="258" stroke="#94708c" stroke-width="2"/>
  <line x1="530.3" y1="248" x2="530.3" y2="258" stroke="#94708c" stroke-width="2"/>
  <circle cx="490.91" cy="253" r="4.5" fill="#94708c"/>
  <text x="539.3" y="257" font-size="9" text-anchor="start" fill="#6b7280" font-weight="normal">5.36 [4.73, 5.95]</text>
  <text x="188" y="291" font-size="10.5" text-anchor="end" fill="#1a1a1a" font-weight="normal">ErG (315)</text>
  <line x1="448.48" y1="287" x2="545.45" y2="287" stroke="#6b7280" stroke-width="2.5" stroke-linecap="round"/>
  <line x1="448.48" y1="282" x2="448.48" y2="292" stroke="#6b7280" stroke-width="2"/>
  <line x1="545.45" y1="282" x2="545.45" y2="292" stroke="#6b7280" stroke-width="2"/>
  <circle cx="500" cy="287" r="4.5" fill="#6b7280"/>
  <text x="554.45" y="291" font-size="9" text-anchor="start" fill="#6b7280" font-weight="normal">5.50 [4.73, 6.18]</text>
  <text x="200" y="338" font-size="9.5" text-anchor="start" fill="#6b7280" font-weight="normal">leader CI overlaps competitors</text>
  <text x="896" y="30" font-size="13" text-anchor="middle" fill="#1a1a1a" font-weight="bold">nonlinear probe</text>
  <line x1="696" y1="54" x2="696" y2="296" stroke="#d8d8d8" stroke-width="1"/>
  <text x="696" y="316" font-size="9.5" text-anchor="middle" fill="#6b7280" font-weight="normal">1</text>
  <line x1="762.67" y1="54" x2="762.67" y2="296" stroke="#d8d8d8" stroke-width="1"/>
  <text x="762.67" y="316" font-size="9.5" text-anchor="middle" fill="#6b7280" font-weight="normal">2</text>
  <line x1="829.33" y1="54" x2="829.33" y2="296" stroke="#d8d8d8" stroke-width="1"/>
  <text x="829.33" y="316" font-size="9.5" text-anchor="middle" fill="#6b7280" font-weight="normal">3</text>
  <line x1="896" y1="54" x2="896" y2="296" stroke="#d8d8d8" stroke-width="1"/>
  <text x="896" y="316" font-size="9.5" text-anchor="middle" fill="#6b7280" font-weight="normal">4</text>
  <line x1="962.67" y1="54" x2="962.67" y2="296" stroke="#d8d8d8" stroke-width="1"/>
  <text x="962.67" y="316" font-size="9.5" text-anchor="middle" fill="#6b7280" font-weight="normal">5</text>
  <line x1="1029.33" y1="54" x2="1029.33" y2="296" stroke="#d8d8d8" stroke-width="1"/>
  <text x="1029.33" y="316" font-size="9.5" text-anchor="middle" fill="#6b7280" font-weight="normal">6</text>
  <line x1="1096" y1="54" x2="1096" y2="296" stroke="#d8d8d8" stroke-width="1"/>
  <text x="1096" y="316" font-size="9.5" text-anchor="middle" fill="#6b7280" font-weight="normal">7</text>
  <line x1="717.21" y1="83" x2="780.85" y2="83" stroke="#1b6ca8" stroke-width="2.5" stroke-linecap="round"/>
  <line x1="717.21" y1="78" x2="717.21" y2="88" stroke="#1b6ca8" stroke-width="2"/>
  <line x1="780.85" y1="78" x2="780.85" y2="88" stroke="#1b6ca8" stroke-width="2"/>
  <circle cx="747.52" cy="83" r="4.5" fill="#1b6ca8"/>
  <text x="789.85" y="87" font-size="9" text-anchor="start" fill="#6b7280" font-weight="normal">1.77 [1.32, 2.27]</text>
  <line x1="786.91" y1="117" x2="880.85" y2="117" stroke="#c1441e" stroke-width="2.5" stroke-linecap="round"/>
  <line x1="786.91" y1="112" x2="786.91" y2="122" stroke="#c1441e" stroke-width="2"/>
  <line x1="880.85" y1="112" x2="880.85" y2="122" stroke="#c1441e" stroke-width="2"/>
  <circle cx="832.36" cy="117" r="4.5" fill="#c1441e"/>
  <text x="889.85" y="121" font-size="9" text-anchor="start" fill="#6b7280" font-weight="normal">3.05 [2.36, 3.77]</text>
  <line x1="868.73" y1="151" x2="941.45" y2="151" stroke="#bc8034" stroke-width="2.5" stroke-linecap="round"/>
  <line x1="868.73" y1="146" x2="868.73" y2="156" stroke="#bc8034" stroke-width="2"/>
  <line x1="941.45" y1="146" x2="941.45" y2="156" stroke="#bc8034" stroke-width="2"/>
  <circle cx="905.09" cy="151" r="4.5" fill="#bc8034"/>
  <text x="950.45" y="155" font-size="9" text-anchor="start" fill="#6b7280" font-weight="normal">4.14 [3.59, 4.68]</text>
  <line x1="874.71" y1="185" x2="941.45" y2="185" stroke="#7a5195" stroke-width="2.5" stroke-linecap="round"/>
  <line x1="874.71" y1="180" x2="874.71" y2="190" stroke="#7a5195" stroke-width="2"/>
  <line x1="941.45" y1="180" x2="941.45" y2="190" stroke="#7a5195" stroke-width="2"/>
  <circle cx="908.12" cy="185" r="4.5" fill="#7a5195"/>
  <text x="950.45" y="189" font-size="9" text-anchor="start" fill="#6b7280" font-weight="normal">4.18 [3.68, 4.68]</text>
  <line x1="877.82" y1="219" x2="999.03" y2="219" stroke="#2e7d5b" stroke-width="2.5" stroke-linecap="round"/>
  <line x1="877.82" y1="214" x2="877.82" y2="224" stroke="#2e7d5b" stroke-width="2"/>
  <line x1="999.03" y1="214" x2="999.03" y2="224" stroke="#2e7d5b" stroke-width="2"/>
  <circle cx="941.45" cy="219" r="4.5" fill="#2e7d5b"/>
  <text x="1008.03" y="223" font-size="9" text-anchor="start" fill="#6b7280" font-weight="normal">4.68 [3.73, 5.55]</text>
  <line x1="892.97" y1="253" x2="999.03" y2="253" stroke="#6b7280" stroke-width="2.5" stroke-linecap="round"/>
  <line x1="892.97" y1="248" x2="892.97" y2="258" stroke="#6b7280" stroke-width="2"/>
  <line x1="999.03" y1="248" x2="999.03" y2="258" stroke="#6b7280" stroke-width="2"/>
  <circle cx="947.52" cy="253" r="4.5" fill="#6b7280"/>
  <text x="1008.03" y="257" font-size="9" text-anchor="start" fill="#6b7280" font-weight="normal">4.77 [3.95, 5.55]</text>
  <line x1="938.42" y1="287" x2="1035.39" y2="287" stroke="#94708c" stroke-width="2.5" stroke-linecap="round"/>
  <line x1="938.42" y1="282" x2="938.42" y2="292" stroke="#94708c" stroke-width="2"/>
  <line x1="1035.39" y1="282" x2="1035.39" y2="292" stroke="#94708c" stroke-width="2"/>
  <circle cx="989.94" cy="287" r="4.5" fill="#94708c"/>
  <text x="1044.39" y="291" font-size="9" text-anchor="start" fill="#6b7280" font-weight="normal">5.41 [4.64, 6.09]</text>
  <text x="696" y="338" font-size="9.5" text-anchor="start" fill="#1a1a1a" font-weight="bold">leader CI clear of every competitor</text>
  <text x="200" y="374" font-size="9.5" text-anchor="start" fill="#6b7280" font-weight="normal">Mean rank over 22 endpoints with 95% bootstrap intervals (10,000 resamples; resampling unit = endpoint). Both panels share one scale. Intervals are marginal, not simultaneous.</text>
</svg>
